<?xml version="1.0" standalone="no"?><!DOCTYPE svg PUBLIC "-//W3C//DTD SVG 1.1//EN" "http://www.w3.org/Graphics/SVG/1.1/DTD/svg11.dtd"><svg t="1527576811704" class="icon" style="" viewBox="0 0 1024 1024" version="1.1" xmlns="http://www.w3.org/2000/svg" p-id="1747" xmlns:xlink="http://www.w3.org/1999/xlink" width="200" height="200"><defs><style type="text/css"></style></defs><path d="M1021.248 172.8l-93.248 371.2c0 4.448-0.896 8.64-2.496 12.448-3.264 7.68-9.376 13.824-17.024 17.056-3.84 1.632-8.064 2.496-12.48 2.496l-608 0 25.6 128 550.4 0c17.696 0 32 14.304 32 32s-14.304 32-32 32l-576 0c-17.696 0-32-14.304-32-32l-121.6-608-102.4 0c-17.664 0-32-14.336-32-32s14.336-32 32-32l128 0c17.696 0 32 14.336 32 32l6.4 32 793.6 0c17.696 0 32 14.336 32 32 0 4.576-1.024 8.864-2.752 12.8zM275.2 512l108.8 0 0-320-172.8 0 64 320zM576 192l-160 0 0 320 160 0 0-320zM768 192l-160 0 0 320 160 0 0-320zM800 192l0 320 72.096 0 81.056-320-153.152 0zM352 832c53.024 0 96 43.008 96 96s-42.976 96-96 96-96-43.008-96-96 42.976-96 96-96zM352 960c17.696 0 32-14.304 32-32s-14.304-32-32-32-32 14.304-32 32 14.304 32 32 32zM800 832c53.024 0 96 43.008 96 96s-42.976 96-96 96-96-43.008-96-96 42.976-96 96-96zM800 960c17.696 0 32-14.304 32-32s-14.304-32-32-32-32 14.304-32 32 14.304 32 32 32z" p-id="1748"></path></svg>